<?xml version="1.0" encoding="UTF-8"?>
<svg width="42" height="43" viewBox="0 0 42 43" xmlns="http://www.w3.org/2000/svg" xmlns:xlink="http://www.w3.org/1999/xlink">
  <defs>
    <path d="M13.7 1.72l-6 6.07c-.2.203-.4.304-.7.304-.3 0-.5-.1-.7-.303l-6-6.07A.986.986 0 0 1 .3.303c.4-.405 1-.405 1.4 0L7 5.666 12.3.304c.4-.405 1-.405 1.4 0 .4.404.4 1.011 0 1.416z" id="a"/>
  </defs>
  <g transform="translate(1 1.347)" fill="none" fill-rule="evenodd">
    <ellipse stroke="#FFF" stroke-width="2" cx="20" cy="20.236" rx="20" ry="20.236"/>
    <g transform="translate(13 16.189)">
      <mask id="b" fill="#fff">
        <use xlink:href="#a"/>
      </mask>
      <use fill="#000" fill-rule="nonzero" xlink:href="#a"/>
      <g mask="url(#b)" fill="#FFF">
        <path d="M-5-8.094h24v24H-5z"/>
      </g>
    </g>
  </g>
</svg>
